<svg width="32" height="32" viewBox="0 0 32 32" fill="none" xmlns="http://www.w3.org/2000/svg">
<path fill-rule="evenodd" clip-rule="evenodd" d="M24 1H8C4.13401 1 1 4.13401 1 8V24C1 27.866 4.13401 31 8 31H24C27.866 31 31 27.866 31 24V8C31 4.13401 27.866 1 24 1ZM8 0C3.58172 0 0 3.58172 0 8V24C0 28.4183 3.58172 32 8 32H24C28.4183 32 32 28.4183 32 24V8C32 3.58172 28.4183 0 24 0H8Z" fill="black"/>
<path fill-rule="evenodd" clip-rule="evenodd" d="M32 9H0V8H32V9Z" fill="black"/>
<path d="M7.5 5C7.5 5.55228 7.05228 6 6.5 6C5.94772 6 5.5 5.55228 5.5 5C5.5 4.44772 5.94772 4 6.5 4C7.05228 4 7.5 4.44772 7.5 5Z" fill="black"/>
<path d="M10.5 5C10.5 5.55228 10.0523 6 9.5 6C8.94772 6 8.5 5.55228 8.5 5C8.5 4.44772 8.94772 4 9.5 4C10.0523 4 10.5 4.44772 10.5 5Z" fill="black"/>
<path d="M13.5 5C13.5 5.55228 13.0523 6 12.5 6C11.9477 6 11.5 5.55228 11.5 5C11.5 4.44772 11.9477 4 12.5 4C13.0523 4 13.5 4.44772 13.5 5Z" fill="black"/>
</svg>
